<svg width="151" height="48" viewBox="0 0 151 48" fill="none" xmlns="http://www.w3.org/2000/svg">
<path d="M1.38509e-05 1.5C1.38509e-05 0.671573 0.676307 0 1.51056 0H16.616C17.4502 0 18.1265 0.671573 18.1265 1.5V17.3309L30.6553 4.9373C31.2456 4.35344 32.2004 4.35435 32.7895 4.93935L43.4706 15.546C43.7543 15.8276 43.9134 16.2098 43.9131 16.6081C43.9127 17.0064 43.7528 17.3882 43.4686 17.6693L31.0034 30H46.8269C47.6611 30 48.3374 30.6716 48.3374 31.5V46.5C48.3374 47.3284 47.6611 48 46.8269 48H9.06328C6.56052 48 4.2947 46.9926 2.65457 45.364C1.78159 44.4971 1.12393 43.4974 0.681583 42.4303C0.635529 42.3195 0.591642 42.2075 0.54997 42.0945C0.208675 41.1689 0.0160984 40.1721 0.000977928 39.1326M18.1265 38.5035L40.2642 16.6046L31.7193 8.11929L18.1265 21.5655V38.5035ZM13.5949 39C13.5949 36.5147 11.566 34.5 9.06328 34.5C6.56053 34.5 4.53164 36.5147 4.53164 39C4.53164 41.4853 6.56053 43.5 9.06328 43.5C11.566 43.5 13.5949 41.4853 13.5949 39ZM45.3163 45V33H27.9707L15.8399 45H45.3163Z" fill="#623CEA"/>
<path d="M1.38509e-05 1.5V38.9842V1.5Z" fill="#623CEA"/>
<path d="M1.38509e-05 38.9842V39C1.38509e-05 39.0442 0.000337201 39.0885 0.000977928 39.1326C0.000249513 39.0832 -7.3106e-05 39.0336 1.38509e-05 38.9842Z" fill="#623CEA"/>
<path d="M63.3591 29.5333H60.7191V15.5733H67.0191C67.6591 15.5733 68.2324 15.6733 68.7391 15.8733C69.2458 16.0733 69.6724 16.3667 70.0191 16.7533C70.3791 17.1267 70.6524 17.58 70.8391 18.1133C71.0391 18.6467 71.1391 19.24 71.1391 19.8933C71.1391 20.8533 70.9191 21.68 70.4791 22.3733C70.0524 23.0667 69.4058 23.56 68.5391 23.8533L71.3991 29.5333H68.4591L65.8591 24.1533H63.3591V29.5333ZM66.7591 21.9333C67.2658 21.9333 67.6658 21.8 67.9591 21.5333C68.2524 21.2533 68.3991 20.86 68.3991 20.3533V19.4333C68.3991 18.9267 68.2524 18.54 67.9591 18.2733C67.6658 18.0067 67.2658 17.8733 66.7591 17.8733H63.3591V21.9333H66.7591ZM77.7674 29.7733C76.994 29.7733 76.3007 29.6467 75.6874 29.3933C75.0874 29.1267 74.574 28.76 74.1474 28.2933C73.734 27.8133 73.414 27.24 73.1874 26.5733C72.9607 25.8933 72.8474 25.1333 72.8474 24.2933C72.8474 23.4667 72.954 22.72 73.1674 22.0533C73.394 21.3867 73.714 20.82 74.1274 20.3533C74.5407 19.8733 75.0474 19.5067 75.6474 19.2533C76.2474 18.9867 76.9274 18.8533 77.6874 18.8533C78.5007 18.8533 79.2074 18.9933 79.8074 19.2733C80.4074 19.5533 80.9007 19.9333 81.2874 20.4133C81.674 20.8933 81.9607 21.4533 82.1474 22.0933C82.3474 22.72 82.4474 23.3933 82.4474 24.1133V24.9533H75.5074V25.2133C75.5074 25.9733 75.7207 26.5867 76.1474 27.0533C76.574 27.5067 77.2074 27.7333 78.0474 27.7333C78.6874 27.7333 79.2074 27.6 79.6074 27.3333C80.0207 27.0667 80.3874 26.7267 80.7074 26.3133L82.0874 27.8533C81.6607 28.4533 81.074 28.9267 80.3274 29.2733C79.594 29.6067 78.7407 29.7733 77.7674 29.7733ZM77.7274 20.7733C77.0474 20.7733 76.5074 21 76.1074 21.4533C75.7074 21.9067 75.5074 22.4933 75.5074 23.2133V23.3733H79.7874V23.1933C79.7874 22.4733 79.6074 21.8933 79.2474 21.4533C78.9007 21 78.394 20.7733 77.7274 20.7733ZM84.6997 29.5333V19.0933H87.2597V20.8333H87.3597C87.5731 20.2733 87.9064 19.8067 88.3597 19.4333C88.8264 19.0467 89.4664 18.8533 90.2797 18.8533C91.3597 18.8533 92.1864 19.2067 92.7597 19.9133C93.3331 20.62 93.6197 21.6267 93.6197 22.9333V29.5333H91.0597V23.1933C91.0597 22.4467 90.9264 21.8867 90.6597 21.5133C90.3931 21.14 89.9531 20.9533 89.3397 20.9533C89.0731 20.9533 88.8131 20.9933 88.5597 21.0733C88.3197 21.14 88.0997 21.2467 87.8997 21.3933C87.7131 21.5267 87.5597 21.7 87.4397 21.9133C87.3197 22.1133 87.2597 22.3533 87.2597 22.6333V29.5333H84.6997ZM100.598 29.7733C99.8509 29.7733 99.1775 29.6467 98.5775 29.3933C97.9909 29.14 97.4842 28.7733 97.0575 28.2933C96.6442 27.8133 96.3242 27.24 96.0975 26.5733C95.8709 25.8933 95.7575 25.1333 95.7575 24.2933C95.7575 23.4533 95.8709 22.7 96.0975 22.0333C96.3242 21.3667 96.6442 20.8 97.0575 20.3333C97.4842 19.8533 97.9909 19.4867 98.5775 19.2333C99.1775 18.98 99.8509 18.8533 100.598 18.8533C101.344 18.8533 102.018 18.98 102.618 19.2333C103.218 19.4867 103.724 19.8533 104.138 20.3333C104.564 20.8 104.891 21.3667 105.118 22.0333C105.344 22.7 105.458 23.4533 105.458 24.2933C105.458 25.1333 105.344 25.8933 105.118 26.5733C104.891 27.24 104.564 27.8133 104.138 28.2933C103.724 28.7733 103.218 29.14 102.618 29.3933C102.018 29.6467 101.344 29.7733 100.598 29.7733ZM100.598 27.7133C101.278 27.7133 101.811 27.5067 102.198 27.0933C102.584 26.68 102.778 26.0733 102.778 25.2733V23.3333C102.778 22.5467 102.584 21.9467 102.198 21.5333C101.811 21.12 101.278 20.9133 100.598 20.9133C99.9309 20.9133 99.4042 21.12 99.0175 21.5333C98.6309 21.9467 98.4375 22.5467 98.4375 23.3333V25.2733C98.4375 26.0733 98.6309 26.68 99.0175 27.0933C99.4042 27.5067 99.9309 27.7133 100.598 27.7133Z" fill="#333333"/>
<path d="M116.527 29.5333L115.407 25.9733H110.447L109.347 29.5333H106.667L111.347 15.5733H114.627L119.267 29.5333H116.527ZM112.967 17.9733H112.867L111.087 23.7133H114.767L112.967 17.9733ZM121.165 19.0933H123.725V20.8133H123.805C123.991 20.2133 124.345 19.74 124.865 19.3933C125.385 19.0333 125.991 18.8533 126.685 18.8533C128.018 18.8533 129.031 19.3267 129.725 20.2733C130.431 21.2067 130.785 22.5467 130.785 24.2933C130.785 26.0533 130.431 27.4067 129.725 28.3533C129.031 29.3 128.018 29.7733 126.685 29.7733C125.991 29.7733 125.385 29.5933 124.865 29.2333C124.358 28.8733 124.005 28.3933 123.805 27.7933H123.725V33.5333H121.165V19.0933ZM125.865 27.6533C126.531 27.6533 127.071 27.4333 127.485 26.9933C127.898 26.5533 128.105 25.96 128.105 25.2133V23.4133C128.105 22.6667 127.898 22.0733 127.485 21.6333C127.071 21.18 126.531 20.9533 125.865 20.9533C125.251 20.9533 124.738 21.1067 124.325 21.4133C123.925 21.72 123.725 22.1267 123.725 22.6333V25.9533C123.725 26.5 123.925 26.92 124.325 27.2133C124.738 27.5067 125.251 27.6533 125.865 27.6533ZM133.157 19.0933H135.717V20.8133H135.797C135.983 20.2133 136.337 19.74 136.857 19.3933C137.377 19.0333 137.983 18.8533 138.677 18.8533C140.01 18.8533 141.023 19.3267 141.717 20.2733C142.423 21.2067 142.777 22.5467 142.777 24.2933C142.777 26.0533 142.423 27.4067 141.717 28.3533C141.023 29.3 140.01 29.7733 138.677 29.7733C137.983 29.7733 137.377 29.5933 136.857 29.2333C136.35 28.8733 135.997 28.3933 135.797 27.7933H135.717V33.5333H133.157V19.0933ZM137.857 27.6533C138.523 27.6533 139.063 27.4333 139.477 26.9933C139.89 26.5533 140.097 25.96 140.097 25.2133V23.4133C140.097 22.6667 139.89 22.0733 139.477 21.6333C139.063 21.18 138.523 20.9533 137.857 20.9533C137.243 20.9533 136.73 21.1067 136.317 21.4133C135.917 21.72 135.717 22.1267 135.717 22.6333V25.9533C135.717 26.5 135.917 26.92 136.317 27.2133C136.73 27.5067 137.243 27.6533 137.857 27.6533Z" fill="#623CEA"/>
</svg>
